<mxfile host="app.diagrams.net" modified="2022-02-20T10:04:35.446Z" agent="5.0 (Windows NT 10.0; Win64; x64) AppleWebKit/537.36 (KHTML, like Gecko) Chrome/97.0.4692.99 Safari/537.36" etag="6WsqOgEiCKRDSwBvekOI" version="16.2.7" type="github">
  <diagram id="Bb5Dwqfp1syZIHtJJdEH" name="Page-1">
    <mxGraphModel dx="462" dy="761" grid="1" gridSize="10" guides="1" tooltips="1" connect="1" arrows="1" fold="1" page="1" pageScale="1" pageWidth="827" pageHeight="1169" math="0" shadow="0">
      <root>
        <mxCell id="0" />
        <mxCell id="1" parent="0" />
        <mxCell id="x2Qk8pfXrXfEeHHeIRhy-9" style="edgeStyle=orthogonalEdgeStyle;rounded=0;orthogonalLoop=1;jettySize=auto;html=1;entryX=0;entryY=0.5;entryDx=0;entryDy=0;fontSize=18;" edge="1" parent="1" source="x2Qk8pfXrXfEeHHeIRhy-1" target="x2Qk8pfXrXfEeHHeIRhy-3">
          <mxGeometry relative="1" as="geometry" />
        </mxCell>
        <mxCell id="x2Qk8pfXrXfEeHHeIRhy-1" value="" style="ellipse;whiteSpace=wrap;html=1;aspect=fixed;fillColor=#000000;" vertex="1" parent="1">
          <mxGeometry x="30" y="310" width="20" height="20" as="geometry" />
        </mxCell>
        <mxCell id="x2Qk8pfXrXfEeHHeIRhy-22" style="rounded=0;orthogonalLoop=1;jettySize=auto;html=1;exitX=0.5;exitY=0;exitDx=0;exitDy=0;entryX=0;entryY=0.5;entryDx=0;entryDy=0;fontSize=18;fillColor=#fff2cc;strokeColor=#d6b656;strokeWidth=3;" edge="1" parent="1" source="x2Qk8pfXrXfEeHHeIRhy-3" target="x2Qk8pfXrXfEeHHeIRhy-4">
          <mxGeometry relative="1" as="geometry" />
        </mxCell>
        <mxCell id="x2Qk8pfXrXfEeHHeIRhy-23" style="edgeStyle=none;rounded=0;orthogonalLoop=1;jettySize=auto;html=1;exitX=0.5;exitY=1;exitDx=0;exitDy=0;entryX=0;entryY=0.5;entryDx=0;entryDy=0;fontSize=18;fillColor=#fff2cc;strokeColor=#d6b656;strokeWidth=3;" edge="1" parent="1" source="x2Qk8pfXrXfEeHHeIRhy-3" target="x2Qk8pfXrXfEeHHeIRhy-7">
          <mxGeometry relative="1" as="geometry" />
        </mxCell>
        <mxCell id="x2Qk8pfXrXfEeHHeIRhy-28" style="edgeStyle=none;rounded=0;orthogonalLoop=1;jettySize=auto;html=1;exitX=1;exitY=0.5;exitDx=0;exitDy=0;entryX=0;entryY=0.5;entryDx=0;entryDy=0;fontSize=18;fillColor=#fff2cc;strokeColor=#d6b656;strokeWidth=3;" edge="1" parent="1" source="x2Qk8pfXrXfEeHHeIRhy-3" target="x2Qk8pfXrXfEeHHeIRhy-6">
          <mxGeometry relative="1" as="geometry" />
        </mxCell>
        <mxCell id="x2Qk8pfXrXfEeHHeIRhy-3" value="&lt;b&gt;&lt;font style=&quot;font-size: 18px&quot;&gt;Pending&lt;/font&gt;&lt;/b&gt;" style="rounded=1;whiteSpace=wrap;html=1;fillColor=#fff2cc;strokeColor=#d6b656;" vertex="1" parent="1">
          <mxGeometry x="110" y="300" width="110" height="40" as="geometry" />
        </mxCell>
        <mxCell id="x2Qk8pfXrXfEeHHeIRhy-24" style="edgeStyle=none;rounded=0;orthogonalLoop=1;jettySize=auto;html=1;exitX=1;exitY=0.5;exitDx=0;exitDy=0;entryX=0;entryY=0;entryDx=0;entryDy=0;fontSize=18;fillColor=#dae8fc;strokeColor=#6c8ebf;strokeWidth=3;" edge="1" parent="1" source="x2Qk8pfXrXfEeHHeIRhy-4" target="x2Qk8pfXrXfEeHHeIRhy-5">
          <mxGeometry relative="1" as="geometry" />
        </mxCell>
        <mxCell id="x2Qk8pfXrXfEeHHeIRhy-25" style="edgeStyle=none;rounded=0;orthogonalLoop=1;jettySize=auto;html=1;exitX=1;exitY=0.5;exitDx=0;exitDy=0;entryX=0;entryY=0;entryDx=0;entryDy=0;fontSize=18;fillColor=#dae8fc;strokeColor=#6c8ebf;strokeWidth=3;" edge="1" parent="1" source="x2Qk8pfXrXfEeHHeIRhy-4" target="x2Qk8pfXrXfEeHHeIRhy-6">
          <mxGeometry relative="1" as="geometry" />
        </mxCell>
        <mxCell id="x2Qk8pfXrXfEeHHeIRhy-4" value="&lt;b&gt;&lt;font style=&quot;font-size: 18px&quot;&gt;Running&lt;/font&gt;&lt;/b&gt;" style="rounded=1;whiteSpace=wrap;html=1;fillColor=#dae8fc;strokeColor=#6c8ebf;" vertex="1" parent="1">
          <mxGeometry x="250" y="200" width="110" height="40" as="geometry" />
        </mxCell>
        <mxCell id="x2Qk8pfXrXfEeHHeIRhy-32" style="edgeStyle=none;rounded=0;orthogonalLoop=1;jettySize=auto;html=1;exitX=1;exitY=0.5;exitDx=0;exitDy=0;entryX=0;entryY=0.5;entryDx=0;entryDy=0;fontSize=18;strokeWidth=1;" edge="1" parent="1" source="x2Qk8pfXrXfEeHHeIRhy-5" target="x2Qk8pfXrXfEeHHeIRhy-31">
          <mxGeometry relative="1" as="geometry" />
        </mxCell>
        <mxCell id="x2Qk8pfXrXfEeHHeIRhy-5" value="&lt;b&gt;&lt;font style=&quot;font-size: 18px&quot;&gt;Succeeded&lt;/font&gt;&lt;/b&gt;" style="rounded=1;whiteSpace=wrap;html=1;fillColor=#d5e8d4;strokeColor=#82b366;" vertex="1" parent="1">
          <mxGeometry x="440" y="260" width="110" height="40" as="geometry" />
        </mxCell>
        <mxCell id="x2Qk8pfXrXfEeHHeIRhy-33" style="edgeStyle=none;rounded=0;orthogonalLoop=1;jettySize=auto;html=1;exitX=1;exitY=0.5;exitDx=0;exitDy=0;fontSize=18;strokeWidth=1;" edge="1" parent="1" source="x2Qk8pfXrXfEeHHeIRhy-6">
          <mxGeometry relative="1" as="geometry">
            <mxPoint x="600" y="320" as="targetPoint" />
          </mxGeometry>
        </mxCell>
        <mxCell id="x2Qk8pfXrXfEeHHeIRhy-6" value="&lt;b&gt;&lt;font style=&quot;font-size: 18px&quot;&gt;Failed&lt;/font&gt;&lt;/b&gt;" style="rounded=1;whiteSpace=wrap;html=1;fillColor=#f8cecc;strokeColor=#b85450;" vertex="1" parent="1">
          <mxGeometry x="440" y="340" width="110" height="40" as="geometry" />
        </mxCell>
        <mxCell id="x2Qk8pfXrXfEeHHeIRhy-26" style="edgeStyle=none;rounded=0;orthogonalLoop=1;jettySize=auto;html=1;exitX=1;exitY=0;exitDx=0;exitDy=0;entryX=0;entryY=1;entryDx=0;entryDy=0;fontSize=18;strokeWidth=3;" edge="1" parent="1" source="x2Qk8pfXrXfEeHHeIRhy-7" target="x2Qk8pfXrXfEeHHeIRhy-5">
          <mxGeometry relative="1" as="geometry" />
        </mxCell>
        <mxCell id="x2Qk8pfXrXfEeHHeIRhy-27" style="edgeStyle=none;rounded=0;orthogonalLoop=1;jettySize=auto;html=1;exitX=1;exitY=0;exitDx=0;exitDy=0;entryX=0;entryY=1;entryDx=0;entryDy=0;fontSize=18;strokeWidth=3;" edge="1" parent="1" source="x2Qk8pfXrXfEeHHeIRhy-7" target="x2Qk8pfXrXfEeHHeIRhy-6">
          <mxGeometry relative="1" as="geometry" />
        </mxCell>
        <mxCell id="x2Qk8pfXrXfEeHHeIRhy-29" style="edgeStyle=none;rounded=0;orthogonalLoop=1;jettySize=auto;html=1;exitX=0.25;exitY=0;exitDx=0;exitDy=0;entryX=1;entryY=1;entryDx=0;entryDy=0;fontSize=18;strokeWidth=3;" edge="1" parent="1" source="x2Qk8pfXrXfEeHHeIRhy-7" target="x2Qk8pfXrXfEeHHeIRhy-3">
          <mxGeometry relative="1" as="geometry" />
        </mxCell>
        <mxCell id="x2Qk8pfXrXfEeHHeIRhy-30" style="edgeStyle=none;rounded=0;orthogonalLoop=1;jettySize=auto;html=1;exitX=0.25;exitY=0;exitDx=0;exitDy=0;entryX=0.25;entryY=1;entryDx=0;entryDy=0;fontSize=18;strokeWidth=3;" edge="1" parent="1" source="x2Qk8pfXrXfEeHHeIRhy-7" target="x2Qk8pfXrXfEeHHeIRhy-4">
          <mxGeometry relative="1" as="geometry" />
        </mxCell>
        <mxCell id="x2Qk8pfXrXfEeHHeIRhy-7" value="&lt;b&gt;&lt;font style=&quot;font-size: 18px&quot;&gt;Unknown&lt;/font&gt;&lt;/b&gt;" style="rounded=1;whiteSpace=wrap;html=1;fillColor=#f5f5f5;strokeColor=#666666;fontColor=#333333;" vertex="1" parent="1">
          <mxGeometry x="250" y="400" width="110" height="40" as="geometry" />
        </mxCell>
        <mxCell id="x2Qk8pfXrXfEeHHeIRhy-31" value="" style="ellipse;whiteSpace=wrap;html=1;aspect=fixed;fillColor=#000000;" vertex="1" parent="1">
          <mxGeometry x="600" y="310" width="20" height="20" as="geometry" />
        </mxCell>
      </root>
    </mxGraphModel>
  </diagram>
</mxfile>
